<svg fill="#000000" height="120px" width="120px" version="1.1" id="Layer_1" xmlns="http://www.w3.org/2000/svg" xmlns:xlink="http://www.w3.org/1999/xlink" viewBox="-100 -100 700.40 700.40" xml:space="preserve" style="transform: scale(1.3);"><g id="SVGRepo_bgCarrier" stroke-width="0"><path transform="translate(-51.2, -51.2), scale(19.2)" d="M16,27.232861093348927C18.556812623602408,27.122890085881533,20.767157945439305,25.66212092283318,22.700536644824773,23.985388618779076C24.600915784052347,22.337275347589,26.0039725566013,20.295949700728407,26.763755529542873,17.89794051360834C27.639631719293067,15.133520640300379,28.569674847754285,12.083320089223607,27.297180255273993,9.47756993853384C25.9862720655775,6.793158363798602,23.13042659975094,5.04294203656257,20.200746857673092,4.458542863698224C17.530416848120495,3.925877594370667,15.219198869644044,5.970919282682116,12.555756148845711,6.537017791858164C9.134579577920926,7.264168010372357,4.474531824642757,5.316903827808958,2.518935836419299,8.216703976194056C0.5926229347425482,11.073082528694995,3.6138763742063444,14.749773768416183,4.847883124217214,17.966419097214693C5.796550937667451,20.43928068463253,6.7605795591997495,22.890689957224836,8.797703222691206,24.58336305928745C10.826368783288626,26.269008211343987,13.364845838601179,27.34620164685129,16,27.232861093348927" fill="#a1f49f" strokewidth="0"></path></g><g id="SVGRepo_tracerCarrier" stroke-linecap="round" stroke-linejoin="round"></g><g id="SVGRepo_iconCarrier"> <g> <g> <path d="M256,50.089c-141.161,0-256,86.134-256,192c0,51.25,26.259,99.071,74.08,135.205 c-3.411,17.929-13.982,42.866-43.455,68.143c-2.786,2.375-3.875,6.188-2.777,9.679c1.098,3.491,4.17,5.991,7.812,6.357 c0.661,0.062,4.732,0.438,11.42,0.438c22.375,0,74.036-4.197,125.348-38.259c26.821,6.928,54.911,10.438,83.571,10.438 c141.161,0,256-86.134,256-192S397.161,50.089,256,50.089z M256,415.804c-28.491,0-56.366-3.661-82.848-10.875 c-2.58-0.696-5.375-0.232-7.598,1.304C125.357,434,83.777,441.366,59.277,443.089c23.634-26.045,31.536-51.063,33.768-68.714 c0.42-3.321-1.009-6.607-3.732-8.563c-45.804-32.973-71.027-76.911-71.027-123.723C18.286,146.303,124.92,68.375,256,68.375 c131.08,0,237.714,77.928,237.714,173.714C493.714,337.875,387.08,415.804,256,415.804z"></path><text xmlns="http://www.w3.org/2000/svg" style="font-size: 100px;transform: translate(130px, 254px);">TEXT</text></g> </g> </g> </svg>